<svg width="130" height="96" viewBox="0 0 130 96" fill="none" xmlns="http://www.w3.org/2000/svg">
<g clip-path="url(#clip0_381_1919)">
<rect width="130" height="96" fill="#F4F4F4"/>
<g clip-path="url(#clip1_381_1919)">
<path d="M50.2598 -8.32031C50.0198 -7.32031 49.3198 -6.08031 47.7598 -4.60031C46.9798 -3.86031 46.4798 -3.04031 46.2798 -2.16031C46.0798 -1.30031 46.2398 -0.420313 46.5598 0.339687C47.1798 1.85969 48.3998 3.13969 49.6198 4.53969C50.8398 5.89969 52.0798 7.35969 52.8798 8.93969C53.6798 10.5397 54.0398 12.1997 53.5598 14.2797L55.7999 14.7997C56.3428 12.4772 56.0378 10.0371 54.9398 7.91969C53.9619 6.12822 52.7514 4.47389 51.3398 2.99969C50.2949 1.94733 49.3999 0.756151 48.6798 -0.540313C48.5143 -0.888981 48.4652 -1.28163 48.5398 -1.66031C48.6198 -2.00031 48.8198 -2.42031 49.3398 -2.92031C50.8376 -4.20363 51.9346 -5.89071 52.4998 -7.78031L50.2598 -8.32031ZM147.66 -3.88031C146.58 -3.90031 145.58 -3.84031 144.66 -3.72031C140.98 -3.26031 138.66 -1.72031 137.06 -0.140313C135.46 1.43969 134.46 2.93969 133.5 3.55969C133.02 3.85969 132.56 4.01969 131.82 3.95969C130.725 3.83335 129.665 3.49362 128.7 2.95969C126.2 1.71969 123.88 0.559687 121.32 0.399687C118.78 0.259687 116.12 1.27969 113.26 3.93969C110.1 6.89969 108.12 7.47969 106.72 7.25969C105.32 7.03969 104.04 5.85969 102.6 4.33969C101.16 2.81969 99.5998 0.999687 97.2398 0.259687C94.8798 -0.480313 91.9598 0.0596876 88.3798 2.59969L89.6998 4.47969C92.9598 2.17969 94.9598 1.95969 96.5398 2.47969C98.0998 2.95969 99.4598 4.37969 100.94 5.91969C102.38 7.45969 103.98 9.15969 106.34 9.53969C108.74 9.91969 111.44 8.81969 114.84 5.61969C117.4 3.21969 119.3 2.61969 121.2 2.69969C123.1 2.81969 125.16 3.77969 127.68 5.03969C128.921 5.70535 130.279 6.12632 131.68 6.27969C132.756 6.34317 133.825 6.0706 134.74 5.49969C136.38 4.45969 137.3 2.85969 138.68 1.49969C140.349 -0.195115 142.569 -1.23776 144.94 -1.44031C148.14 -1.84031 152.86 -1.40031 159.94 0.799687L160.62 -1.40031C156.444 -2.82764 152.088 -3.66243 147.68 -3.88031H147.66ZM40.9198 -3.66031C38.5582 -3.53508 36.2849 -2.72167 34.3798 -1.32031C33.1815 -0.295364 32.3409 1.0847 31.9798 2.61969C31.6198 3.93969 31.4998 5.11969 31.2398 5.89969C30.9798 6.67969 30.7798 6.99969 29.8798 7.23969C24.8398 8.59969 21.9998 9.53969 20.2798 11.7197C18.5798 13.9197 18.3798 16.8197 18.0398 21.6197C17.8798 23.7397 17.3598 24.4197 16.8798 24.7197C16.3798 25.0397 15.5198 25.0797 14.3998 25.1197C13.2998 25.1197 11.8798 25.1597 10.7198 26.1597C9.53984 27.1797 8.95984 28.9197 8.91984 31.6797L11.2198 31.7197C11.2598 29.2797 11.7798 28.3197 12.2198 27.9197C12.6798 27.5197 13.3998 27.4197 14.4598 27.3997C15.5198 27.3997 16.8598 27.4597 18.1198 26.6597C19.3598 25.8597 20.1398 24.2797 20.3198 21.7797C20.6798 16.9997 20.9998 14.5797 22.1198 13.1597C23.2198 11.7397 25.5198 10.7997 30.4798 9.47969C31.1617 9.28297 31.7855 8.92353 32.2977 8.4323C32.8098 7.94106 33.1949 7.33274 33.4198 6.65969C33.8198 5.45969 33.9198 4.27969 34.2198 3.21969C34.4998 2.13969 34.8998 1.21969 35.8598 0.439687C37.4248 -0.656194 39.271 -1.28083 41.1798 -1.36031L40.9198 -3.66031ZM171.68 6.07969C170.6 11.0997 172.92 14.2797 174 16.5997C174.54 17.7397 174.78 18.5997 174.52 19.5997C174.24 20.5997 173.38 21.9397 171.2 23.7397L172.68 25.5197C175.04 23.5597 176.3 21.8597 176.74 20.1797C177.075 18.6298 176.84 17.011 176.08 15.6197C174.82 12.9397 173.04 10.7597 173.94 6.55969L171.68 6.07969ZM11.4798 6.41969C10.0857 6.40852 8.71499 6.77907 7.51634 7.49121C6.31769 8.20335 5.33677 9.22991 4.67984 10.4597C4.07984 11.4597 3.61984 12.4797 3.21984 13.2597C2.81984 14.0597 2.41984 14.5797 2.21984 14.6997C0.919845 15.5597 -0.200155 15.4997 -1.78016 16.0597C-3.38016 16.6197 -5.02016 17.9397 -6.52016 21.0997L-4.44016 22.0997C-3.10015 19.2397 -2.12016 18.6197 -1.04016 18.2397C0.0598427 17.8397 1.67984 17.8397 3.49984 16.6397C4.35984 16.0397 4.81984 15.1997 5.25984 14.3197C5.71984 13.4597 6.13984 12.5197 6.65984 11.6597C7.67984 9.95969 8.83984 8.67969 11.4598 8.71969L11.4798 6.41969ZM78.6998 7.21969C75.2998 7.21969 72.9398 8.13969 71.3598 9.61969C69.9698 11.0745 68.954 12.8453 68.3998 14.7797C67.7598 16.5397 67.2398 18.1797 66.3998 19.2997C65.5598 20.4397 64.4998 21.1597 62.2398 21.2997L62.3798 23.5997C63.5169 23.5892 64.6368 23.321 65.6553 22.8152C66.6738 22.3095 67.5643 21.5793 68.2598 20.6797C69.4398 19.0997 69.9598 17.2397 70.5798 15.5597C71.1798 13.8597 71.8198 12.3597 72.9398 11.2997C74.0598 10.2397 75.6798 9.49969 78.6798 9.53969L78.6998 7.21969ZM146.1 9.09969C142.7 9.51969 140.4 10.7197 138.86 12.2997C137.543 13.7435 136.541 15.4465 135.92 17.2997C135.518 18.6166 134.881 19.8498 134.04 20.9397C133.3 21.6797 132.36 22.0797 130.08 21.7597L129.76 24.0397C132.46 24.4397 134.42 23.8397 135.68 22.5797C136.92 21.3197 137.46 19.6797 138.08 18.1397C138.587 16.5755 139.411 15.1323 140.5 13.8997C142.103 12.3981 144.186 11.5124 146.38 11.3997L146.1 9.09969ZM98.3998 14.5997C96.4598 15.2997 95.2598 16.2597 94.5798 17.3597C93.8998 18.4797 93.7798 19.5797 93.6398 20.4597C93.4998 21.3397 93.3598 21.9597 92.8998 22.4997C92.4598 23.0397 91.5998 23.6397 89.6998 24.1197C89.0088 24.2659 88.3607 24.5692 87.8057 25.0062C87.2508 25.4432 86.804 26.0022 86.4998 26.6397C86.1061 27.7062 85.9757 28.852 86.1198 29.9797C86.1998 31.0397 86.3198 31.9797 86.1998 32.6597C86.1198 33.3397 85.9998 33.6197 85.3798 33.9397C84.3998 34.4597 82.9198 34.0197 80.9998 33.5997C80.0598 33.3797 78.9998 33.1997 77.9198 33.3597C76.6827 33.5448 75.5536 34.1696 74.7398 35.1197L76.4798 36.6397C77.0798 35.9597 77.5998 35.7197 78.2398 35.6397C78.8798 35.5397 79.6398 35.6397 80.4998 35.8397C82.2198 36.2397 84.3598 37.0797 86.4398 35.9997C87.6998 35.3397 88.3398 34.0997 88.4998 32.9997C88.6598 31.8597 88.4998 30.7997 88.4398 29.8197C88.3598 28.8597 88.3998 28.0397 88.5998 27.5397C88.8198 27.0197 89.1398 26.6597 90.2798 26.3397C91.9632 26.0371 93.5053 25.203 94.6798 23.9597C95.5398 22.9197 95.7598 21.7597 95.9198 20.8397C96.0598 19.8997 96.1798 19.1797 96.5398 18.5797C96.9198 17.9797 97.5798 17.3397 99.1798 16.7797L98.3998 14.5997ZM162.46 14.9397C156.06 15.6597 150.56 17.5997 147.26 21.4197C143.98 25.2397 143.2 30.8797 145.86 38.2197C146.96 41.2397 148.38 45.7597 147.32 49.6997C146.24 53.6197 142.84 57.2997 133.18 58.9597L133.58 61.2397C143.74 59.4997 148.22 55.1197 149.54 50.2997C150.86 45.4597 149.14 40.5197 148.02 37.4197C145.54 30.5797 146.34 26.0597 149.02 22.9197C151.72 19.7797 156.62 17.9197 162.72 17.2397L162.46 14.9397ZM106.16 22.2397L104.32 23.6397C110.06 31.2397 116.06 31.6197 120.52 31.6397C122.72 31.6397 124.54 31.6397 125.86 32.2797C127.18 32.9197 128.3 34.1397 129.18 37.2797L131.4 36.6597C130.42 33.1597 128.86 31.1397 126.86 30.1997C124.86 29.2397 122.72 29.3397 120.52 29.3197C116.12 29.3197 111.48 29.3197 106.16 22.2397V22.2397ZM27.5998 23.5397L27.3998 25.8397C29.6398 26.0397 30.8598 26.6997 31.7198 27.5997C32.5798 28.5197 33.0798 29.7397 33.5198 31.0997C33.9198 32.4597 34.2398 33.9197 34.9198 35.2397C35.6198 36.5597 36.8798 37.7197 38.7198 37.9797C40.5598 38.2397 42.8398 38.1397 44.4198 38.8597C45.1998 39.2197 45.8198 39.7397 46.2398 40.6397C46.6798 41.5397 46.9398 42.9197 46.7598 44.9997C46.6598 46.0597 46.7998 46.9997 47.2398 47.7997C47.6398 48.5997 48.3398 49.1397 49.0798 49.5197C50.5598 50.2597 52.2998 50.4197 54.1398 50.6597C55.9598 50.8997 57.8598 51.1797 59.4998 51.8597C61.1398 52.5397 62.5198 53.5597 63.4998 55.4397L65.5598 54.3597C64.4402 52.2506 62.6027 50.6118 60.3798 49.7397C58.3798 48.8997 56.2798 48.6197 54.4398 48.3797C52.9578 48.274 51.4973 47.9644 50.0998 47.4597C49.7453 47.3034 49.4508 47.0368 49.2598 46.6997C49.0464 46.2375 48.9767 45.7219 49.0598 45.2197C49.3283 43.3205 49.0724 41.384 48.3198 39.6197C47.7034 38.3526 46.6634 37.3409 45.3798 36.7597C43.0398 35.6997 40.4198 35.8797 39.0598 35.6997C37.8998 35.5397 37.4598 35.0797 36.9798 34.1597C36.4998 33.2597 36.1798 31.8797 35.7198 30.4197C35.3051 28.7843 34.5102 27.2699 33.3998 25.9997C31.8448 24.4766 29.7753 23.5917 27.5998 23.5197V23.5397ZM163.52 30.3397L161.24 30.7397C161.54 32.4197 162.48 33.6997 163.64 34.4997C164.82 35.2997 166.18 35.6997 167.52 35.8997C168.86 36.0997 170.16 36.1397 171.22 36.1397H173.28C174.82 36.4197 175.56 36.9397 176.24 37.6997C176.92 38.4397 177.48 39.4997 178.36 40.5797C179.397 41.9303 180.809 42.9457 182.42 43.4997C184.38 44.1997 186.98 44.5197 190.72 44.2997C191.92 44.2197 193.14 44.3397 194.32 44.6797L194.94 42.4797C193.54 42.0597 192.06 41.8797 190.58 41.9997C188.1 42.2693 185.592 42.045 183.2 41.3397C181.987 40.931 180.927 40.1639 180.16 39.1397C179.44 38.2597 178.88 37.1797 177.96 36.1397C176.835 34.9177 175.324 34.1197 173.68 33.8797C172.96 33.7397 172.24 33.8197 171.22 33.8197C170.2 33.8197 169.02 33.7997 167.88 33.6197C166.84 33.5005 165.837 33.1595 164.94 32.6197C164.551 32.3715 164.222 32.04 163.976 31.6492C163.73 31.2584 163.575 30.818 163.52 30.3597V30.3397ZM65.1198 35.6197L62.7999 35.6997C62.9599 41.0997 64.3798 44.2197 66.4598 46.0797C68.5598 47.9197 71.0998 48.4397 73.2198 49.1397C75.3398 49.8597 77.0198 50.6197 78.1798 52.8797C79.3398 55.1397 79.9798 59.1197 79.1798 66.1797L81.4598 66.4397C82.2798 59.1597 81.7398 54.7397 80.2398 51.8397C79.5816 50.6407 78.6848 49.5892 77.6048 48.7499C76.5247 47.9107 75.2843 47.3014 73.9598 46.9597C71.6598 46.1797 69.5398 45.6997 67.9998 44.3597C66.4598 42.9797 65.2598 40.6597 65.0998 35.6197H65.1198ZM-19.8602 39.1197L-21.6602 40.5597C-20.6149 41.9068 -19.2062 42.9269 -17.6002 43.4997C-15.6402 44.1997 -13.0402 44.5197 -9.28016 44.2997C-5.00016 44.0397 -1.22016 45.9597 2.45984 51.7997L4.41984 50.5597C0.459844 44.2997 -4.32016 41.6797 -9.42016 41.9997C-11.9075 42.2676 -14.4233 42.0365 -16.8202 41.3197C-18.0329 40.911 -19.0929 40.1439 -19.8602 39.1197V39.1197ZM116.08 41.7997C114.129 41.8943 112.232 42.4715 110.56 43.4797C109.091 44.4139 107.822 45.6303 106.826 47.0585C105.831 48.4867 105.128 50.0982 104.76 51.7997C104.032 54.7453 102.261 57.3272 99.775 59.0667C97.289 60.8062 94.2565 61.5854 91.2398 61.2597L91.0398 63.5597C94.6081 63.9244 98.188 62.9879 101.121 60.9226C104.053 58.8573 106.141 55.8022 107 52.3197C107.605 49.4887 109.31 47.014 111.74 45.4397C114.22 43.9197 117.66 43.4397 122.3 45.1797L123.12 43.0197C120.876 42.1311 118.471 41.7223 116.06 41.8197L116.08 41.7997ZM15.6798 43.8597C14.4369 45.004 13.566 46.495 13.1798 48.1397C12.9198 49.5197 13.1598 50.7397 13.4798 51.7997C13.7998 52.8397 14.1998 53.7197 14.3598 54.3997C14.5198 55.0797 14.5198 55.4397 14.1998 55.9397C12.9598 57.9397 10.9598 58.6597 9.05984 60.2997C8.11984 61.1197 7.25984 62.2197 6.77984 63.7397C6.29984 65.2397 6.17984 67.1397 6.53984 69.6397L8.83984 69.3197C8.52412 67.6961 8.57193 66.0226 8.97984 64.4197C9.31984 63.3397 9.85984 62.6797 10.5798 62.0397C12.0398 60.7797 14.4798 59.8397 16.1598 57.1797C16.8398 56.0797 16.8398 54.8597 16.5998 53.8597C16.3598 52.8597 15.9598 51.9797 15.6798 51.1197C15.3883 50.3063 15.3125 49.4311 15.4598 48.5797C15.6198 47.7197 16.0998 46.7197 17.3198 45.4997L15.6798 43.8597ZM28.9598 49.1997L28.9198 51.4997C29.1798 51.4997 30.2198 51.8597 31.0998 52.5197C31.9598 53.1997 32.6998 54.1197 32.8998 54.9997C33.4398 57.0797 34.5998 58.5997 36.1798 59.3997C37.8739 60.17 39.7835 60.3256 41.5798 59.8397L41.0598 57.5797C39.4598 57.9397 38.1598 57.8397 37.2198 57.3597C36.2598 56.8797 35.5598 56.0197 35.1598 54.4397C34.7187 52.9295 33.7816 51.612 32.4998 50.6997C31.5101 49.8348 30.2697 49.3092 28.9598 49.1997V49.1997ZM167.02 49.2797L165.54 51.0797C167.82 52.9397 168.44 54.5597 168.44 56.1597C168.44 57.7597 167.68 59.4797 166.72 61.2397C165.76 62.9797 164.6 64.7197 164.02 66.5597C163.42 68.3997 163.62 70.5597 165.38 72.1797C166.3 73.0397 167.58 73.7797 168.92 74.6997C170.26 75.5997 171.64 76.6197 172.64 77.7397C173.64 78.8597 174.28 80.0197 174.32 81.3397C174.36 82.6997 173.82 84.3397 172.08 86.4197C171.22 87.4197 170.72 88.3997 170.66 89.4197C170.58 90.4197 171 91.3397 171.58 92.0597C172.74 93.4597 174.52 94.4597 176.24 95.8197C178.165 97.202 179.696 99.0636 180.68 101.22C181.7 103.64 182.1 106.86 181.04 111.54L183.28 112.06C184.44 107.02 184.04 103.24 182.8 100.34C181.669 97.8199 179.905 95.6357 177.68 93.9997C175.8 92.5397 174.06 91.4397 173.36 90.5997C173.02 90.1797 172.92 89.9197 172.96 89.5797C172.96 89.2397 173.18 88.6997 173.84 87.8997C175.84 85.5197 176.68 83.2997 176.64 81.2997C176.519 79.3805 175.71 77.5694 174.36 76.1997C173.121 74.9044 171.731 73.7629 170.22 72.7997C168.82 71.8597 167.56 71.0597 166.94 70.4797C165.78 69.4197 165.78 68.6197 166.22 67.2597C166.64 65.8997 167.72 64.1997 168.74 62.3597C169.76 60.4997 170.74 58.4397 170.74 56.1597C170.74 53.8797 169.66 51.4797 167.02 49.2797V49.2797ZM112.46 61.3397L110.36 62.2997C111.126 64.2281 112.512 65.8466 114.3 66.8997C115.78 67.6997 117.26 67.8197 118.5 67.9397C119.76 68.0397 120.78 68.1397 121.58 68.6197C122.38 69.0797 123.18 69.8997 123.86 71.8997C124.58 73.9797 125.58 75.3797 126.9 76.1197C128.2 76.8797 129.68 76.9197 131.06 76.6797C133.84 76.2397 136.66 74.8997 139.26 74.8197C142.3 74.7397 143.88 75.2197 144.8 75.8197C145.72 76.4197 146.12 77.2197 146.64 78.2197C147.16 79.2197 147.86 80.4997 149.36 81.1797C150.86 81.8797 152.92 81.9797 156.16 81.3597L155.72 79.0997C152.72 79.6597 151.14 79.4597 150.32 79.0997C149.52 78.6997 149.2 78.1197 148.68 77.1597C148.13 75.8546 147.23 74.7265 146.08 73.8997C144.62 72.9597 142.5 72.4197 139.2 72.4997C135.92 72.6197 132.94 74.0397 130.7 74.3997C129.58 74.5997 128.74 74.5197 128.04 74.1197C127.34 73.7197 126.64 72.9197 126.04 71.1397C125.24 68.7997 124.08 67.3797 122.72 66.6197C121.36 65.8397 119.96 65.7397 118.72 65.6197C117.568 65.6014 116.432 65.3496 115.38 64.8797C114.4 64.3597 113.42 63.4197 112.46 61.3397V61.3397ZM64.2598 62.9597C62.1998 63.0513 60.179 63.5551 58.317 64.4414C56.4551 65.3277 54.7899 66.5785 53.4198 68.1197C51.8914 69.9557 49.998 71.4541 47.8598 72.5197C46.5198 73.0397 45.6598 72.9197 44.7198 72.6397C43.7798 72.3397 42.7798 71.7597 41.4598 71.4997C40.6598 71.3625 39.8404 71.3874 39.0502 71.5729C38.2601 71.7584 37.5152 72.1008 36.8598 72.5797C36.2598 72.9797 35.7798 73.5397 35.0398 74.2397C34.2998 74.9397 33.4198 75.7397 32.4798 76.3797C31.5398 77.0397 30.5398 77.5197 29.6398 77.6597C28.7598 77.7997 27.9598 77.6797 27.0598 76.9997L25.6798 78.8597C27.0398 79.8797 28.5998 80.1597 30.0198 79.9397C31.3844 79.6838 32.6713 79.1156 33.7798 78.2797C34.7879 77.5627 35.7376 76.7668 36.6198 75.8997C37.3998 75.1597 38.0798 74.5197 38.1398 74.4997C39.4398 73.6397 40.1798 73.5997 41.0198 73.7597C41.8398 73.9397 42.7998 74.4597 44.0398 74.8397C45.2998 75.2197 46.8998 75.3597 48.6998 74.6397C50.4998 73.9397 52.5398 72.4397 55.0998 69.6997C56.7379 67.7681 58.9113 66.3649 61.346 65.6673C63.7806 64.9696 66.3674 65.0088 68.7798 65.7797L69.3598 63.5397C67.6965 63.1024 65.9789 62.907 64.2598 62.9597V62.9597ZM-18.1002 64.0797L-18.2402 66.3797C-13.2402 66.6997 -10.5802 67.6197 -9.04016 68.7797C-7.46016 69.9397 -6.82016 71.4197 -5.96016 73.3797C-4.99917 75.8489 -3.54256 78.0951 -1.68016 79.9797C0.719843 82.2397 4.35984 84.4397 10.3798 86.3597L11.0798 84.1597C5.27984 82.2997 1.97984 80.2797 -0.0801563 78.2997C-1.73944 76.6388 -3.02181 74.6402 -3.84016 72.4397C-4.70016 70.4997 -5.56016 68.4597 -7.64016 66.9197C-9.74016 65.3797 -12.8602 64.4197 -18.1002 64.0797V64.0797ZM181.9 64.0797L181.76 66.3797C186.3 66.6797 188.9 67.4597 190.5 68.4597C192.1 69.4597 192.82 70.6797 193.58 72.2997L195.66 71.3397C194.878 69.3638 193.51 67.6747 191.74 66.4997C189.64 65.1997 186.64 64.3797 181.9 64.0997V64.0797ZM102.1 74.1997C101.28 74.1997 100.42 74.3197 99.4998 74.5997L100.14 76.7997C103.08 75.9597 104.78 76.7997 106.4 78.2797C108.04 79.7397 109.36 81.8797 111.02 83.4197C111.96 84.2997 113.06 84.6997 114.08 84.8197C115.1 84.9397 116.06 84.8397 116.98 84.8197C118.82 84.7797 120.56 84.8597 122.98 87.0397C124.84 88.7397 126.34 91.4797 127.98 94.0797C129.64 96.6597 131.48 99.1997 134.44 100.04L135.06 97.8397C133.08 97.2397 131.52 95.3197 129.94 92.8397C128.36 90.3397 126.84 87.4397 124.54 85.3397C123.531 84.3781 122.337 83.6321 121.03 83.1473C119.724 82.6624 118.332 82.4489 116.94 82.5197C115.9 82.5197 115.04 82.5997 114.34 82.5197C113.677 82.4704 113.053 82.1869 112.58 81.7197C111.32 80.5597 109.92 78.3197 107.94 76.5597C106.352 75.0649 104.26 74.2224 102.08 74.1997H102.1ZM57.4398 78.5597L55.3398 79.4797C55.9798 80.9797 57.2998 82.1797 57.9998 83.4797C58.3598 84.1597 58.5398 84.7597 58.5198 85.3597C58.5198 85.9597 58.3198 86.5597 57.6398 87.3597C56.2398 88.9597 56.1198 91.1197 56.3398 93.0597C56.5398 94.9797 57.1398 96.8197 57.5398 97.9997L59.7198 97.2997C59.3198 96.0997 58.7998 94.4197 58.6198 92.7997C58.4398 91.1797 58.6398 89.7397 59.3998 88.8597C60.3398 87.7397 60.7998 86.5597 60.8398 85.4197C60.841 84.3668 60.5651 83.3322 60.0398 82.4197C59.0998 80.6597 57.7398 79.2197 57.4398 78.5597V78.5597ZM87.0998 83.6197C84.5598 83.7797 82.7398 85.5797 81.0998 87.2197C79.4998 88.8197 77.9798 90.2997 76.4598 90.6397C74.9198 90.9997 73.0198 90.4997 69.9798 87.3197L68.3198 88.9197C71.6198 92.3797 74.4998 93.4597 76.9598 92.8997C79.4398 92.3397 81.1598 90.4197 82.7598 88.8397C84.3598 87.2397 85.7598 86.0197 87.2398 85.9197C88.7198 85.8397 90.7998 86.7997 93.8998 90.6797L95.6998 89.2397C92.3998 85.0997 89.6598 83.4797 87.0998 83.6397V83.6197ZM31.3998 87.7197C31.1504 89.6189 31.5 91.5487 32.3998 93.2397C33.1998 94.5397 34.3998 95.2397 35.5598 95.6797C36.6798 96.0797 37.7998 96.2797 38.6398 96.5397C39.4798 96.7997 39.9598 97.0797 40.2398 97.5397C41.2998 99.2997 42.3198 101.84 43.8798 104.02C45.4198 106.22 47.6798 108.12 50.8798 108.14C55.1998 108.18 57.5998 108.82 59.0998 109.94C60.5998 111.06 61.3998 112.8 62.2398 115.5L64.4398 114.82C63.5598 111.98 62.5798 109.66 60.4798 108.1C58.3998 106.52 55.4398 105.86 50.8998 105.84C48.5598 105.82 47.0998 104.58 45.7598 102.7C44.4398 100.82 43.4198 98.3597 42.2198 96.3597C41.5409 95.3463 40.5058 94.6252 39.3198 94.3397C38.2598 93.9997 37.2198 93.8197 36.3598 93.4997C35.5457 93.267 34.8428 92.7487 34.3798 92.0397C33.8998 91.2597 33.5798 89.9997 33.6998 87.8597L31.3998 87.7197ZM-5.10016 89.1197L-4.84016 91.3997C-3.02016 91.1997 -1.84016 91.5997 -0.840157 92.2397C0.159843 92.8997 0.959843 93.8797 1.73984 94.8997C2.51984 95.8997 3.21984 96.9797 4.33984 97.6797C5.47984 98.3797 7.09984 98.3797 8.63984 97.4397C10.2598 96.4397 11.0998 96.3997 11.7998 96.5997C12.4798 96.7997 13.1998 97.3997 14.1198 98.2397C15.0598 99.0797 16.1998 100.1 17.8398 100.7C19.4798 101.3 21.5798 101.44 24.2398 100.76L23.6798 98.5197C21.3398 99.1197 19.8198 98.9597 18.6398 98.5197C17.5243 98.056 16.5116 97.3763 15.6598 96.5197C14.7598 95.7197 13.8198 94.7797 12.4198 94.3797C11.0198 93.9797 9.37984 94.2997 7.45984 95.4597C6.35984 96.1197 6.05984 96.0197 5.55984 95.7197C5.03984 95.3997 4.35984 94.5397 3.55984 93.4997C2.71331 92.2601 1.65757 91.1773 0.439842 90.2997C-1.2041 89.2505 -3.16943 88.8248 -5.10016 89.0997V89.1197ZM147.78 98.0597H145.48C145.48 103.38 146.92 106.56 149.18 108.38C151.44 110.2 154.24 110.58 156.72 111.06C159.2 111.52 161.36 112.02 162.74 113.5C164.14 114.98 165.08 117.66 164.62 123.1L166.92 123.3C167.42 117.52 166.44 114.04 164.42 111.9C162.42 109.78 159.66 109.24 157.14 108.78C154.6 108.32 152.26 107.9 150.62 106.58C149 105.28 147.8 102.98 147.78 98.0597V98.0597ZM102.5 98.1997C100.9 98.3597 99.6598 99.2997 98.5998 100.1C97.5398 100.9 96.5998 101.52 95.8798 101.64C95.1598 101.74 94.3998 101.58 93.0798 100.04L91.3398 101.56C92.9398 103.42 94.6798 104.16 96.2398 103.92C97.7798 103.68 98.9398 102.72 99.9798 101.94C100.766 101.249 101.705 100.756 102.72 100.5C103.52 100.42 104.4 100.7 105.86 102.34C108.24 105.08 110.5 106.24 112.6 106.56C114.7 106.9 116.52 106.48 118.18 106.4C119.82 106.32 121.3 106.46 123.18 107.76C125.02 109.06 127.28 111.64 129.98 116.5L132.02 115.36C129.22 110.36 126.8 107.48 124.48 105.88C122.615 104.551 120.344 103.914 118.06 104.08C116.16 104.18 114.54 104.54 112.96 104.28C111.38 104.04 109.72 103.28 107.6 100.82C105.88 98.8597 104.12 98.0397 102.5 98.2197V98.1997ZM73.1998 102.6C71.8636 102.583 70.5277 102.65 69.1998 102.8L69.4398 105.1C74.9998 104.46 77.7399 105.42 79.2999 106.94C80.8799 108.46 81.4798 110.84 82.0998 113.48C82.6998 116.1 83.3598 119 85.6198 121.04C87.8798 123.08 91.5398 123.96 97.5198 123.1L97.1998 120.82C91.5398 121.62 88.7599 120.76 87.1599 119.32C85.5599 117.88 84.9598 115.56 84.3398 112.94C83.7398 110.34 83.0998 107.42 80.8998 105.28C79.2598 103.68 76.8198 102.7 73.1998 102.6V102.6ZM15.5998 112.02C14.7998 112.02 14.0198 112.06 13.2798 112.14C10.3198 112.48 7.69984 113.24 4.93984 112.5L4.33984 114.74C7.81984 115.64 10.8398 114.74 13.5398 114.44C14.9647 114.153 16.4376 114.215 17.8337 114.618C19.2298 115.022 20.508 115.757 21.5598 116.76C23.5598 118.48 25.5198 118.98 27.2598 118.84C29.0198 118.72 30.4998 118.06 31.9598 117.7C35.5998 116.8 37.7998 117 39.2598 117.6C40.7198 118.2 41.5998 119.22 42.5198 120.38C43.4598 121.52 44.4798 122.88 46.2598 123.4C48.0398 123.94 50.2598 123.52 53.4198 121.92L52.3598 119.86C49.4598 121.34 47.8798 121.48 46.9198 121.2C45.9598 120.92 45.2798 120.1 44.3198 118.92C43.2517 117.414 41.8021 116.22 40.1198 115.46C38.0998 114.64 35.3398 114.48 31.3998 115.46C29.7198 115.86 28.3198 116.46 27.0798 116.54C25.8398 116.64 24.6998 116.42 23.0798 115C21.0249 113.128 18.3588 112.069 15.5798 112.02H15.5998ZM145.4 115.22L143.14 115.76C143.52 117.3 143.3 118.24 142.86 119.02C142.4 119.78 141.6 120.42 140.6 121.02C139.6 121.58 138.44 122.1 137.36 122.7C136.197 123.244 135.247 124.158 134.66 125.3C133.66 127.6 133.94 130.24 133.74 132.68C133.54 135.12 133.04 137.22 130.84 138.84C127.82 141.1 126.3 142.98 125.64 144.76C124.94 146.56 125.22 148.12 125.4 149.36C125.6 150.62 125.72 151.52 125.2 152.68C124.68 153.84 123.38 155.36 120.36 157.38L121.66 159.3C124.86 157.16 126.52 155.36 127.3 153.62C128.1 151.88 127.88 150.3 127.7 149.02C127.5 147.76 127.32 146.78 127.78 145.58C128.24 144.38 129.38 142.78 132.22 140.7C135.06 138.58 135.82 135.56 136.04 132.86C136.26 130.18 136.12 127.7 136.78 126.22C136.98 125.76 137.58 125.24 138.5 124.72C139.42 124.2 140.6 123.68 141.76 123C143.011 122.348 144.072 121.384 144.84 120.2C145.674 118.678 145.875 116.889 145.4 115.22V115.22ZM121.34 119.6C118.14 119.6 115.54 120.86 113.66 122.8C111.793 124.889 110.431 127.38 109.68 130.08C107.08 138.34 101.82 139.68 99.0198 139.46C94.9798 139.14 92.2198 140.02 90.2798 141.46C88.3598 142.94 87.3198 144.86 86.3398 146.46C85.3798 148.02 84.5398 149.16 83.2198 149.66C81.8798 150.16 79.7398 150.12 75.9598 148.6L75.0798 150.74C79.1398 152.36 81.8998 152.62 84.0198 151.82C86.1398 151.02 87.2999 149.28 88.2999 147.66C89.2999 146.02 90.2198 144.42 91.6998 143.32C93.1398 142.2 95.1998 141.46 98.8398 141.76C102.66 142.04 109.02 139.86 111.88 130.78C112.68 128.26 113.8 125.98 115.32 124.42C116.083 123.592 117.016 122.938 118.055 122.504C119.094 122.069 120.214 121.863 121.34 121.9V119.6ZM-3.32016 122.88L-5.18016 124.24C-3.79953 126.334 -1.77921 127.927 0.579844 128.78C2.51984 129.42 4.37984 129.36 5.97984 129.34C7.57984 129.3 8.89984 129.34 10.0398 129.84C11.1798 130.36 12.2598 131.38 13.3398 133.78L15.4398 132.82C14.2198 130.1 12.6998 128.52 10.9798 127.74C9.37456 127.127 7.65252 126.881 5.93984 127.02C4.31984 127.04 2.77984 127.08 1.29984 126.58C-0.600541 125.889 -2.21829 124.588 -3.30016 122.88H-3.32016ZM159.4 130.36C157.3 130.579 155.28 131.284 153.5 132.42C151.32 133.64 149.5 134.74 146.36 134.38L146.1 136.68C149.9 137.1 152.48 135.64 154.64 134.44C156.8 133.24 158.54 132.24 161.62 132.78C165.2 133.4 167.3 135.44 169.74 137.22C172.16 139.02 175.16 140.42 179.46 138.88C184.52 137.08 187.66 136.82 189.66 137.22C191.7 137.62 192.72 138.6 193.78 139.72L195.46 138.16C194.087 136.527 192.207 135.401 190.12 134.96C187.5 134.44 183.96 134.82 178.68 136.7C175.06 138 173.34 137.02 171.08 135.36C168.84 133.72 166.28 131.26 162.02 130.5C161.08 130.34 160.22 130.3 159.42 130.36H159.4ZM71.4198 130.78C69.1636 130.724 66.9212 131.147 64.8398 132.02C62.8398 132.82 61.0398 133.8 59.4798 134.54C57.9398 135.26 56.6198 135.7 55.8398 135.64C52.6398 135.44 50.8198 133.96 48.0198 133.04C45.2198 132.14 41.6798 132.16 35.9398 135.12L36.9798 137.18C42.4198 134.38 44.9998 134.5 47.2998 135.24C49.6198 135.98 51.8598 137.7 55.6998 137.96C57.2998 138.06 58.8398 137.4 60.4798 136.62C62.1198 135.84 63.8798 134.9 65.6798 134.18C69.3398 132.74 73.0598 132.12 77.2398 135.4L78.6798 133.6C76.6215 131.914 74.077 130.933 71.4198 130.8V130.78ZM-10.1202 134.9C-12.7002 134.46 -16.1202 134.86 -21.1402 136.62L-20.3802 138.82C-15.5802 137.1 -12.5202 136.82 -10.5202 137.18C-8.52016 137.52 -7.48016 138.4 -6.46016 139.48C-5.44016 140.54 -4.50016 141.88 -2.80016 142.54C-1.08016 143.16 1.09984 142.84 4.17984 141.22L3.09984 139.18C0.299844 140.66 -1.10016 140.7 -1.98016 140.38C-2.88016 140.04 -3.64016 139.08 -4.78016 137.88C-6.17533 136.315 -8.05619 135.266 -10.1202 134.9V134.9ZM160.6 139.14L158.34 139.56C159.02 143.2 158.94 146.56 158.06 149.12C157.698 150.345 157.016 151.453 156.085 152.328C155.153 153.203 154.006 153.815 152.76 154.1C147.76 155.38 145.16 157.22 143.94 159.16C143.471 159.857 143.172 160.654 143.068 161.488C142.963 162.322 143.057 163.169 143.34 163.96L145.5 163.14C145.339 162.686 145.289 162.2 145.355 161.723C145.421 161.246 145.601 160.792 145.88 160.4C146.68 159.14 148.68 157.52 153.34 156.32C154.941 155.917 156.413 155.115 157.62 153.989C158.827 152.863 159.728 151.449 160.24 149.88C161.32 146.78 161.34 143.04 160.6 139.14V139.14ZM16.8598 143.4C13.6598 143.8 10.3398 146.48 6.09984 152.66L8.01984 153.98C12.0998 147.98 15.0598 145.96 17.1598 145.7C19.2398 145.44 21.0398 146.78 23.0998 148.72C25.1598 150.68 27.2998 153.12 30.2598 154.16C33.2198 155.16 36.8198 154.44 40.9798 150.64L39.4198 148.94C35.6198 152.42 33.1798 152.72 31.0198 151.98C28.8598 151.22 26.8198 149.08 24.6798 147.06C22.5198 145.02 20.0798 143 16.8798 143.4H16.8598ZM53.9398 148.04L53.4998 150.3C55.2369 150.568 56.8271 151.43 57.9998 152.74C58.9998 153.88 59.6198 155.28 60.1398 156.76C60.6598 158.26 61.0598 159.8 61.6998 161.18C62.3398 162.56 63.3798 163.86 65.0198 164.32C68.9598 165.44 71.8398 165.56 74.0798 166.24C76.3198 166.92 78.0598 168.02 80.2598 171.46L82.1998 170.22C79.7998 166.46 77.3998 164.82 74.7398 164.02C72.0998 163.22 69.3399 163.14 65.6599 162.1C64.7799 161.86 64.2999 161.3 63.7999 160.2C63.2799 159.12 62.8798 157.6 62.3198 156C61.7751 154.251 60.8917 152.627 59.7198 151.22C58.1986 149.549 56.1656 148.43 53.9398 148.04V148.04ZM181.04 156.06C177.9 155.74 175.66 156.46 174.18 157.8C172.855 159.176 171.893 160.86 171.38 162.7C170.78 164.42 170.22 166.06 169.32 167.24C168.4 168.42 167.22 169.24 164.86 169.44L165.06 171.74C166.235 171.685 167.386 171.38 168.434 170.845C169.483 170.311 170.405 169.559 171.14 168.64C172.38 167.04 172.96 165.16 173.56 163.48C174.16 161.82 174.76 160.4 175.74 159.5C176.7 158.62 178.08 158.08 180.8 158.36L181.04 156.06ZM103.84 157.14C102.674 156.955 101.486 156.955 100.32 157.14C98.2398 157.5 96.7398 158.54 95.6398 159.74C94.5398 160.9 93.7598 162.18 92.9798 163.14C92.2198 164.12 91.5398 164.74 90.5798 164.94L91.0798 167.18C92.5882 166.78 93.9062 165.859 94.7999 164.58C95.6999 163.46 96.4198 162.26 97.3198 161.32C98.1998 160.38 99.1798 159.68 100.72 159.42C103.04 159.181 105.382 159.547 107.52 160.48L108.32 158.32C106.62 157.72 105.14 157.32 103.82 157.12L103.84 157.14ZM-1.50016 158.04C-1.50016 159.24 -1.82016 159.88 -2.36016 160.44C-3.0111 161.079 -3.78743 161.576 -4.64016 161.9C-5.58016 162.32 -6.64016 162.72 -7.66016 163.3C-8.68016 163.9 -9.66016 164.72 -10.1802 166C-10.7202 167.34 -10.7802 168.52 -10.4802 169.48C-10.1802 170.44 -9.62016 171.08 -9.22016 171.66C-8.82016 172.22 -8.50016 172.68 -8.38016 173.34C-8.26016 173.98 -8.30016 174.88 -8.82016 176.34C-9.70016 178.74 -9.32016 180.7 -8.34016 182C-7.34016 183.32 -6.02016 184.06 -5.06016 184.86C-4.12016 185.66 -3.58016 186.3 -3.58016 187.66C-3.58016 188.98 -4.32016 191.18 -6.64016 194.62L-4.74016 195.9C-2.28016 192.3 -1.28016 189.76 -1.26016 187.66C-1.26016 185.56 -2.42016 184.08 -3.58016 183.1C-4.74016 182.1 -5.90016 181.4 -6.50016 180.62C-7.10016 179.82 -7.36016 179.06 -6.64016 177.12C-6.04016 175.4 -5.90016 174.04 -6.12016 172.92C-6.32016 171.76 -6.88016 170.92 -7.34016 170.3C-7.80016 169.66 -8.14016 169.22 -8.28016 168.78C-8.42016 168.36 -8.46016 167.86 -8.04016 166.86C-7.78016 166.2 -7.28016 165.76 -6.52016 165.3C-5.74016 164.86 -4.72016 164.48 -3.68016 164C-2.55719 163.548 -1.53684 162.875 -0.680157 162.02C0.219843 161.08 0.799843 159.72 0.819843 158.06L-1.50016 158.04ZM25.5598 158.48L23.6598 159.78C26.5598 164.02 30.4598 164.54 32.8598 165.34C34.0798 165.74 34.8598 166.14 35.4198 167.02C35.9598 167.9 36.3398 169.46 36.1598 172.28L38.4598 172.42C38.6598 169.36 38.2998 167.28 37.3798 165.8C36.4817 164.486 35.1393 163.542 33.5998 163.14C30.7998 162.22 27.9998 162.02 25.5598 158.48ZM9.95984 165.58L9.59984 167.86C14.4998 168.66 16.8398 170.5 18.1598 172.86C19.4798 175.2 19.7598 178.26 19.8598 181.36C19.9598 184.48 19.8798 187.6 20.9998 190.2C21.5798 191.5 22.4798 192.68 23.8398 193.44C25.4609 194.282 27.2751 194.682 29.0998 194.6V192.28C27.1798 192.28 25.8998 191.96 24.9798 191.44C24.0798 190.92 23.5398 190.24 23.1198 189.3C22.3198 187.4 22.2798 184.46 22.1598 181.3C22.0598 178.12 21.8398 174.7 20.1598 171.72C18.5198 168.76 15.3598 166.44 9.95984 165.58V165.58ZM47.3798 166.64L45.7398 168.24C47.2998 169.84 47.7798 171.16 47.8198 172.4C47.8798 173.64 47.4598 174.9 46.8798 176.2C46.2998 177.5 45.5798 178.8 45.2398 180.26C44.8998 181.7 45.0798 183.42 46.2998 184.82C47.4998 186.22 49.2998 187.62 50.0198 189.22C50.3798 190.02 50.4998 190.78 50.2398 191.76C49.9798 192.74 49.2598 193.96 47.7598 195.38C47.2645 195.809 46.8685 196.341 46.5991 196.938C46.3297 197.535 46.1935 198.184 46.1998 198.84C46.3255 200.008 46.7914 201.114 47.5398 202.02C48.9398 203.94 50.9798 205.78 52.3398 207.92L54.2798 206.7C52.6998 204.2 50.5598 202.24 49.3998 200.66C48.8198 199.86 48.5198 199.2 48.4998 198.72C48.4798 198.22 48.5998 197.78 49.3598 197.06C50.801 195.804 51.8727 194.179 52.4598 192.36C52.8598 190.86 52.6598 189.44 52.1198 188.26C51.0598 185.92 48.9598 184.34 48.0398 183.3C47.2798 182.42 47.2398 181.8 47.4798 180.8C47.7198 179.8 48.3798 178.54 48.9998 177.14C49.5998 175.74 50.1998 174.12 50.1398 172.3C49.9608 170.134 48.9759 168.114 47.3798 166.64V166.64ZM153.42 168.74L151.94 170.5C152.7 171.14 153.04 171.8 153.22 172.6C153.4 173.4 153.36 174.36 153.26 175.4C153.06 177.48 152.48 179.92 153.74 182.12C154.46 183.4 155.58 184.12 156.66 184.32C157.74 184.48 158.72 184.28 159.6 184.18C160.5 184.06 161.26 184.02 161.9 184.22C162.54 184.42 163.18 184.82 163.9 186.02C166.26 189.92 168.42 190.88 170.04 191.46C171.64 192.02 172.6 192.14 174.36 195.32L176.36 194.2C174.4 190.64 172.36 189.82 170.8 189.28C169.24 188.72 168.02 188.38 165.86 184.8C165.151 183.492 163.982 182.494 162.58 182C161.515 181.72 160.402 181.679 159.32 181.88C158.36 182 157.58 182.12 157.04 182.02C156.52 181.94 156.2 181.82 155.74 181C155.06 179.78 155.34 177.86 155.56 175.62C155.71 174.455 155.676 173.274 155.46 172.12C155.179 170.79 154.461 169.593 153.42 168.72V168.74ZM103.68 171.34L101.48 172.02C102.155 174.561 103.309 176.951 104.88 179.06C106.24 180.72 107.88 181.74 109.64 182.1C113.18 182.82 116.94 181.1 120.96 178.48C121.993 177.804 123.244 177.547 124.46 177.76C125.72 177.96 127.06 178.5 128.34 179.26C130.364 180.483 132.109 182.118 133.46 184.06L135.52 183.02C134.038 180.629 131.974 178.654 129.52 177.28C128.076 176.37 126.464 175.758 124.78 175.48C123.014 175.199 121.206 175.576 119.7 176.54C115.86 179.04 112.56 180.34 110.1 179.84C108.726 179.533 107.51 178.737 106.68 177.6C105.296 175.72 104.278 173.596 103.68 171.34V171.34ZM62.5998 183.6L62.2999 185.88C64.3888 186.353 66.2854 187.447 67.7398 189.02C69.5198 190.68 71.2398 192.74 73.0398 194.42C74.8398 196.12 76.7999 197.54 79.1599 197.48C81.5199 197.44 83.8199 195.84 86.1599 192.44C87.0357 190.989 88.3518 189.855 89.9166 189.204C91.4814 188.553 93.2132 188.418 94.8598 188.82C98.4266 189.685 101.627 191.66 104 194.46L105.74 192.94C103.04 189.728 99.3684 187.482 95.2798 186.54C93.1963 186.109 91.0314 186.318 89.0685 187.139C87.1057 187.96 85.4366 189.354 84.2798 191.14C82.1398 194.22 80.4598 195.14 79.0998 195.18C77.7398 195.22 76.2598 194.3 74.6198 192.74C72.9598 191.2 71.2198 189.14 69.3198 187.34C67.3798 185.54 65.2198 183.94 62.5998 183.6V183.6ZM147.66 196.1C146.56 196.1 145.56 196.14 144.64 196.26C140.96 196.74 138.64 198.26 137.04 199.86C135.44 201.42 134.44 202.94 133.48 203.54C133 203.86 132.54 204 131.8 203.96C130.705 203.833 129.645 203.493 128.68 202.96C126.16 201.72 123.86 200.56 121.3 200.4C118.74 200.26 116.1 201.26 113.24 203.94C112.3 204.86 111.24 205.66 110.14 206.34L111.34 208.3C112.603 207.532 113.777 206.627 114.84 205.6H114.82C117.38 203.22 119.26 202.6 121.16 202.7C123.08 202.8 125.14 203.78 127.64 205.04C129.2 205.8 130.5 206.2 131.68 206.28C132.84 206.34 133.88 206.02 134.72 205.5C136.36 204.46 137.3 202.84 138.66 201.5C140.328 199.803 142.549 198.761 144.92 198.56C148.12 198.16 152.84 198.58 159.92 200.8L160.6 198.6C156.425 197.165 152.069 196.324 147.66 196.1V196.1ZM94.3798 200C92.5998 200.2 90.6398 201 88.3798 202.6L89.7198 204.48C91.1409 203.344 92.8268 202.587 94.6198 202.28C95.8598 202.16 96.8198 202.48 97.7398 203.04C99.6198 204.2 101.2 206.64 103.46 208.28L104.82 206.4C103.1 205.16 101.48 202.62 98.9598 201.08C97.5978 200.215 95.9845 199.835 94.3798 200V200Z" fill="#EAEAEA"/>
</g>
</g>
<defs>
<clipPath id="clip0_381_1919">
<rect width="130" height="96" fill="white"/>
</clipPath>
<clipPath id="clip1_381_1919">
<rect width="200" height="200" fill="white" transform="translate(-13)"/>
</clipPath>
</defs>
</svg>
