<svg width="202" height="202" viewBox="0 0 202 202" fill="none" xmlns="http://www.w3.org/2000/svg">
<path d="M112.683 177.564L116.35 193.959L113.868 194.514L110.201 178.119L112.683 177.564Z" fill="black"/>
<path d="M93.6488 176.89L91.2909 193.524L85.8968 192.759C83.9483 192.483 82.3966 191.916 81.2416 191.057C80.0709 190.196 79.2732 189.097 78.8486 187.76C78.406 186.437 78.3059 184.92 78.5484 183.209C78.7887 181.514 79.3065 180.085 80.1017 178.921C80.8788 177.77 81.9493 176.945 83.3132 176.443C84.659 175.955 86.3062 175.849 88.2547 176.125L93.6488 176.89ZM90.8268 178.672L88.0466 178.278C86.5417 178.064 85.3187 178.141 84.3778 178.509C83.4211 178.874 82.6875 179.489 82.177 180.354C81.6507 181.217 81.2967 182.29 81.1148 183.573C80.9329 184.856 80.9737 185.993 81.2372 186.984C81.4849 187.973 82.0176 188.775 82.8351 189.392C83.6345 190.023 84.7867 190.444 86.2916 190.658L89.0718 191.052L90.8268 178.672Z" fill="black"/>
<path d="M72.6722 171.695L66.1242 187.166L56.2888 183.004L57.0933 181.103L64.5858 184.274L66.6251 179.456L59.7956 176.565L60.5814 174.709L67.4109 177.599L69.525 172.604L62.0324 169.433L62.8369 167.532L72.6722 171.695Z" fill="black"/>
<path d="M52.8179 160.107C53.8007 160.85 54.532 161.674 55.0118 162.578C55.4915 163.482 55.7008 164.413 55.6396 165.369C55.5656 166.316 55.2022 167.235 54.5492 168.125L52.4049 166.504C52.9324 165.78 53.1419 164.985 53.0331 164.121C52.9244 163.257 52.4297 162.491 51.549 161.826C50.7704 161.237 50.0242 160.964 49.3104 161.006C48.5743 161.051 47.9843 161.367 47.5405 161.955C47.1835 162.427 47.0025 162.892 46.9976 163.349C46.9799 163.797 47.0838 164.257 47.3092 164.728C47.5218 165.19 47.8064 165.676 48.1629 166.186C48.5194 166.696 48.8917 167.238 49.2799 167.812C50.0533 168.939 50.4942 169.974 50.6026 170.918C50.6983 171.853 50.4084 172.767 49.7331 173.661C49.1766 174.423 48.5074 174.95 47.7255 175.242C46.9308 175.524 46.0922 175.572 45.2097 175.386C44.3048 175.203 43.412 174.779 42.5313 174.113C41.6634 173.457 41.0245 172.724 40.6148 171.913C40.1923 171.092 40.0131 170.254 40.0771 169.4C40.1315 168.559 40.4369 167.757 40.9934 166.994L43.1377 168.615C42.8772 168.959 42.7205 169.352 42.6676 169.794C42.6051 170.248 42.669 170.707 42.8592 171.172C43.0495 171.637 43.3935 172.057 43.8913 172.434C44.5198 172.929 45.1701 173.17 45.8421 173.156C46.5014 173.133 47.053 172.828 47.4968 172.241C47.8924 171.718 48.0431 171.2 47.9491 170.687C47.855 170.175 47.6123 169.621 47.221 169.024C46.82 168.44 46.3665 167.766 45.8606 167.003C45.3609 166.284 44.9652 165.574 44.6734 164.872C44.3817 164.17 44.2708 163.454 44.3407 162.725C44.3979 161.986 44.716 161.234 45.2949 160.468C45.8062 159.791 46.4561 159.29 47.2445 158.963C48.0233 158.649 48.8973 158.568 49.8663 158.719C50.8257 158.882 51.8095 159.345 52.8179 160.107Z" fill="black"/>
<path d="M43.2646 149.963L30.7151 161.132L29.0238 159.231L41.5733 148.062L43.2646 149.963Z" fill="black"/>
<path d="M33.094 134.458C33.8613 135.844 34.2168 137.229 34.1604 138.613C34.1041 139.998 33.6679 141.291 32.8519 142.493C32.0359 143.695 30.872 144.714 29.3603 145.551C27.8626 146.38 26.377 146.819 24.9037 146.866C23.4304 146.914 22.0734 146.577 20.8327 145.856C19.5703 145.128 18.5283 144.023 17.7068 142.539C16.7767 140.859 16.4076 139.235 16.5994 137.666C16.7912 136.096 17.5079 134.748 18.7497 133.622L20.1448 136.141C19.4849 136.799 19.1132 137.581 19.0295 138.487C18.9459 139.393 19.1908 140.364 19.7644 141.4C20.6169 142.939 21.7843 143.875 23.2664 144.207C24.7485 144.538 26.3644 144.22 28.1141 143.251C29.8637 142.282 30.9882 141.092 31.4875 139.682C31.9868 138.272 31.8373 136.846 31.039 135.404C30.2329 133.948 29.2154 133.085 27.9866 132.814C26.7499 132.53 25.4109 132.704 23.9694 133.338L26.1783 137.327L24.4566 138.28L21.0037 132.045L28.9823 127.627L30.11 129.663L28.052 131.05C29.0931 131.113 30.029 131.4 30.8597 131.909C31.6905 132.419 32.4352 133.268 33.094 134.458Z" fill="black"/>
<path d="M28.2059 116.976L11.7908 120.552L11.2494 118.066L21.8147 107.143L9.45647 109.835L8.91501 107.349L25.3301 103.774L25.8715 106.259L15.3063 117.182L27.6645 114.49L28.2059 116.976Z" fill="black"/>
<path d="M40.1566 53.9191L27.074 43.3794L28.67 41.3983L41.7526 51.938L40.1566 53.9191Z" fill="black"/>
<path d="M62.53 34.8331C61.0905 35.6678 59.6642 36.0787 58.2511 36.0657C56.8438 36.0309 55.5313 35.6175 54.3137 34.8254C53.0881 34.0194 52.046 32.8759 51.1872 31.3949C50.3204 29.9 49.8458 28.4274 49.7632 26.9772C49.6726 25.5132 49.9618 24.1618 50.6307 22.9232C51.3135 21.6765 52.3746 20.6358 53.8141 19.8012C55.5167 18.814 57.1485 18.4227 58.7097 18.6272C60.2709 18.8317 61.6302 19.5971 62.7876 20.9234L60.3377 22.344C59.6543 21.612 58.8498 21.1815 57.9242 21.0523C56.9986 20.9232 56.0028 21.1677 54.937 21.7856C53.4837 22.6283 52.6237 23.7928 52.3573 25.2789C52.0828 26.7512 52.4471 28.3525 53.4503 30.0827C54.4455 31.799 55.6502 32.9038 57.0643 33.397C58.4785 33.8902 59.9122 33.7154 61.3656 32.8727C62.4314 32.2547 63.1462 31.5259 63.5101 30.6861C63.8739 29.8463 63.9159 28.9619 63.6362 28.0329L66.0862 26.6123C66.6302 28.2204 66.5991 29.7457 65.993 31.1884C65.3868 32.631 64.2325 33.846 62.53 34.8331Z" fill="black"/>
<path d="M83.3796 26.6094C81.7586 26.9854 80.2571 26.9558 78.8751 26.5209C77.4931 26.0859 76.3127 25.3166 75.3341 24.2132C74.3519 23.0942 73.6674 21.7008 73.2806 20.0331C72.8938 18.3654 72.8969 16.8207 73.2898 15.3992C73.6792 13.9621 74.3986 12.744 75.448 11.7451C76.4975 10.7461 77.8327 10.0587 79.4537 9.68272C81.0746 9.30676 82.5761 9.33628 83.9581 9.77127C85.3402 10.2063 86.5145 10.9851 87.4811 12.1077C88.4597 13.2111 89.1425 14.5967 89.5293 16.2644C89.9161 17.9322 89.9148 19.4846 89.5254 20.9217C89.148 22.3397 88.4346 23.5481 87.3852 24.547C86.3357 25.546 85.0005 26.2334 83.3796 26.6094ZM82.8644 24.3884C83.9866 24.1281 84.9029 23.6528 85.6133 22.9624C86.3393 22.2684 86.8276 21.3996 87.0783 20.356C87.329 19.3124 87.3043 18.1437 87.0043 16.8501C86.7042 15.5564 86.212 14.4962 85.5275 13.6695C84.843 12.8428 84.0221 12.2776 83.0647 11.9741C82.123 11.6669 81.091 11.6435 79.9688 11.9038C78.8466 12.164 77.9225 12.6412 77.1965 13.3351C76.4705 14.0291 75.9822 14.8979 75.7315 15.9415C75.4964 16.9816 75.5289 18.1484 75.8289 19.442C76.129 20.7357 76.6135 21.7977 77.2824 22.628C77.9669 23.4548 78.7878 24.0199 79.7451 24.3235C80.7024 24.627 81.7422 24.6486 82.8644 24.3884Z" fill="black"/>
<path d="M98.751 24.0597L99.8139 7.29338L105.251 7.63805C107.215 7.76255 108.806 8.2081 110.024 8.97469C111.258 9.74229 112.138 10.7761 112.665 12.076C113.209 13.361 113.426 14.8657 113.317 16.5903C113.208 18.2988 112.803 19.7641 112.1 20.9861C111.414 22.1931 110.411 23.0995 109.09 23.7051C107.786 24.2958 106.152 24.5289 104.188 24.4044L98.751 24.0597ZM101.427 22.065L104.229 22.2426C105.746 22.3388 106.959 22.1672 107.869 21.7279C108.794 21.2896 109.478 20.6195 109.92 19.7176C110.378 18.8168 110.648 17.7197 110.73 16.4263C110.812 15.1329 110.683 14.0025 110.344 13.0351C110.02 12.0687 109.427 11.3096 108.564 10.7579C107.718 10.1913 106.537 9.85986 105.02 9.7637L102.218 9.58605L101.427 22.065Z" fill="black"/>
<path d="M119.989 26.6178L125.32 10.6859L135.448 14.0745L134.793 16.0319L127.077 13.4504L125.417 18.4121L132.45 20.7651L131.811 22.6769L124.778 20.3239L123.057 25.4677L130.772 28.0491L130.118 30.0065L119.989 26.6178Z" fill="black"/>
<path d="M171.579 71.7748L187.216 65.6326L188.146 68.0005L172.51 74.1427L171.579 71.7748Z" fill="black"/>
<path d="M177.185 93.2209L193.979 92.7826L194.144 99.1165C194.19 100.86 193.816 102.19 193.024 103.107C192.232 104.024 191.22 104.499 189.988 104.531C188.916 104.559 188.053 104.293 187.398 103.734C186.759 103.175 186.317 102.49 186.072 101.68C185.961 102.323 185.72 102.898 185.349 103.403C184.978 103.925 184.509 104.338 183.941 104.641C183.372 104.943 182.752 105.104 182.081 105.121C181.217 105.144 180.428 104.948 179.713 104.535C179.014 104.137 178.454 103.535 178.033 102.73C177.612 101.925 177.386 100.93 177.355 99.7467L177.185 93.2209ZM186.848 95.5136L186.938 98.9924C186.964 99.9681 187.207 100.706 187.668 101.206C188.146 101.706 188.784 101.945 189.584 101.924C190.368 101.904 190.985 101.632 191.435 101.108C191.886 100.6 192.098 99.8341 192.071 98.8104L191.982 95.3796L186.848 95.5136ZM179.338 95.7096L179.433 99.3564C179.46 100.38 179.721 101.165 180.215 101.713C180.71 102.276 181.389 102.546 182.253 102.524C183.117 102.501 183.789 102.188 184.269 101.583C184.765 100.978 185.001 100.171 184.974 99.1637L184.88 95.565L179.338 95.7096Z" fill="black"/>
<path d="M175.009 118.666C175.294 117.5 175.777 116.498 176.46 115.66C177.154 114.842 178.044 114.269 179.129 113.941C180.21 113.629 181.481 113.651 182.942 114.009L193.13 116.5L192.525 118.971L182.314 116.474C180.884 116.124 179.752 116.21 178.916 116.73C178.081 117.251 177.52 118.094 177.235 119.26C176.954 120.41 177.064 121.408 177.565 122.256C178.066 123.103 179.032 123.701 180.462 124.051L190.673 126.548L190.069 129.019L179.881 126.528C178.42 126.171 177.286 125.589 176.478 124.782C175.667 123.99 175.146 123.056 174.915 121.978C174.696 120.92 174.727 119.816 175.009 118.666Z" fill="black"/>
<path d="M170.333 133.112L185.47 140.4L184.367 142.692L169.23 135.404L170.333 133.112Z" fill="black"/>
<path d="M165.372 142.465L178.924 152.394L177.42 154.446L165.494 145.709L160.984 151.865L159.358 150.674L165.372 142.465Z" fill="black"/>
<path d="M154.473 156.084L165.105 169.092L160.887 172.539C159.363 173.785 157.894 174.541 156.48 174.809C155.054 175.086 153.705 174.928 152.434 174.334C151.161 173.763 149.978 172.808 148.885 171.47C147.801 170.144 147.101 168.795 146.784 167.421C146.465 166.07 146.583 164.723 147.139 163.381C147.692 162.06 148.731 160.777 150.255 159.532L154.473 156.084ZM153.87 159.366L151.696 161.144C150.519 162.106 149.747 163.057 149.379 163.998C149 164.949 148.955 165.905 149.245 166.867C149.522 167.839 150.071 168.826 150.891 169.83C151.712 170.833 152.575 171.574 153.482 172.051C154.377 172.539 155.328 172.692 156.336 172.509C157.341 172.348 158.433 171.787 159.609 170.825L161.784 169.048L153.87 159.366Z" fill="black"/>
<path d="M129.986 182.056C129.426 182.056 128.914 181.92 128.45 181.648C127.986 181.376 127.61 181.016 127.322 180.568C127.05 180.104 126.914 179.584 126.914 179.008C126.914 178.432 127.05 177.912 127.322 177.448C127.61 176.984 127.986 176.616 128.45 176.344C128.914 176.072 129.426 175.936 129.986 175.936C130.562 175.936 131.082 176.072 131.546 176.344C132.01 176.616 132.378 176.984 132.65 177.448C132.922 177.912 133.058 178.432 133.058 179.008C133.058 179.584 132.922 180.104 132.65 180.568C132.378 181.016 132.01 181.376 131.546 181.648C131.082 181.92 130.562 182.056 129.986 182.056Z" fill="black"/>
<path d="M158.986 43.056C158.426 43.056 157.914 42.92 157.45 42.648C156.986 42.376 156.61 42.016 156.322 41.568C156.05 41.104 155.914 40.584 155.914 40.008C155.914 39.432 156.05 38.912 156.322 38.448C156.61 37.984 156.986 37.616 157.45 37.344C157.914 37.072 158.426 36.936 158.986 36.936C159.562 36.936 160.082 37.072 160.546 37.344C161.01 37.616 161.378 37.984 161.65 38.448C161.922 38.912 162.058 39.432 162.058 40.008C162.058 40.584 161.922 41.104 161.65 41.568C161.378 42.016 161.01 42.376 160.546 42.648C160.082 42.92 159.562 43.056 158.986 43.056Z" fill="black"/>
<path d="M20.9863 81.056C20.4263 81.056 19.9143 80.92 19.4503 80.648C18.9863 80.376 18.6103 80.016 18.3223 79.568C18.0503 79.104 17.9143 78.584 17.9143 78.008C17.9143 77.432 18.0503 76.912 18.3223 76.448C18.6103 75.984 18.9863 75.616 19.4503 75.344C19.9143 75.072 20.4263 74.936 20.9863 74.936C21.5623 74.936 22.0823 75.072 22.5463 75.344C23.0103 75.616 23.3783 75.984 23.6503 76.448C23.9223 76.912 24.0583 77.432 24.0583 78.008C24.0583 78.584 23.9223 79.104 23.6503 79.568C23.3783 80.016 23.0103 80.376 22.5463 80.648C22.0823 80.92 21.5623 81.056 20.9863 81.056Z" fill="black"/>
</svg>
