<svg width="67" height="58" viewBox="0 0 67 58" fill="none" xmlns="http://www.w3.org/2000/svg">
<g filter="url(#filter0_d_2_65)">
<path d="M25.9383 23.7954L24.3757 1.44999L40.1133 0.349511L40.4526 5.20166L30.4291 5.90258L30.6612 9.22247L38.546 8.67111L38.8853 13.5233L31.0005 14.0746L31.313 18.5437L41.6877 17.8182L42.027 22.6704L25.9383 23.7954Z" fill="#24292E"/>
<path d="M25.9383 23.7954L25.5392 23.8233L25.5671 24.2224L25.9662 24.1945L25.9383 23.7954ZM24.3757 1.44999L24.3478 1.05096L23.9488 1.07887L23.9767 1.47789L24.3757 1.44999ZM40.1133 0.349511L40.5123 0.321608L40.4844 -0.0774176L40.0854 -0.049515L40.1133 0.349511ZM40.4526 5.20166L40.4805 5.60069L40.8795 5.57279L40.8516 5.17376L40.4526 5.20166ZM30.4291 5.90258L30.4012 5.50355L30.0021 5.53145L30.03 5.93048L30.4291 5.90258ZM30.6612 9.22247L30.2622 9.25037L30.2901 9.6494L30.6891 9.62149L30.6612 9.22247ZM38.546 8.67111L38.945 8.64321L38.9171 8.24419L38.5181 8.27209L38.546 8.67111ZM38.8853 13.5233L38.9132 13.9223L39.3122 13.8944L39.2843 13.4954L38.8853 13.5233ZM31.0005 14.0746L30.9726 13.6756L30.5736 13.7035L30.6015 14.1025L31.0005 14.0746ZM31.313 18.5437L30.914 18.5716L30.9419 18.9706L31.3409 18.9427L31.313 18.5437ZM41.6877 17.8182L42.0867 17.7903L42.0588 17.3913L41.6598 17.4192L41.6877 17.8182ZM42.027 22.6704L42.0549 23.0694L42.4539 23.0415L42.426 22.6425L42.027 22.6704ZM26.3373 23.7675L24.7747 1.42209L23.9767 1.47789L25.5392 23.8233L26.3373 23.7675ZM24.4036 1.84901L40.1412 0.748536L40.0854 -0.049515L24.3478 1.05096L24.4036 1.84901ZM39.7143 0.377413L40.0536 5.22957L40.8516 5.17376L40.5123 0.321608L39.7143 0.377413ZM40.4247 4.80264L30.4012 5.50355L30.457 6.3016L40.4805 5.60069L40.4247 4.80264ZM30.03 5.93048L30.2622 9.25037L31.0602 9.19457L30.8281 5.87467L30.03 5.93048ZM30.6891 9.62149L38.5739 9.07014L38.5181 8.27209L30.6333 8.82344L30.6891 9.62149ZM38.1469 8.69902L38.4862 13.5512L39.2843 13.4954L38.945 8.64321L38.1469 8.69902ZM38.8573 13.1242L30.9726 13.6756L31.0284 14.4736L38.9132 13.9223L38.8573 13.1242ZM30.6015 14.1025L30.914 18.5716L31.712 18.5158L31.3995 14.0467L30.6015 14.1025ZM31.3409 18.9427L41.7156 18.2173L41.6598 17.4192L31.2851 18.1447L31.3409 18.9427ZM41.2887 17.8461L41.6279 22.6983L42.426 22.6425L42.0867 17.7903L41.2887 17.8461ZM41.9991 22.2714L25.9104 23.3964L25.9662 24.1945L42.0549 23.0694L41.9991 22.2714Z" fill="black"/>
</g>
<defs>
<filter id="filter0_d_2_65" x="0.375716" y="0.324951" width="65.6513" height="71.4705" filterUnits="userSpaceOnUse" color-interpolation-filters="sRGB">
<feFlood flood-opacity="0" result="BackgroundImageFix"/>
<feColorMatrix in="SourceAlpha" type="matrix" values="0 0 0 0 0 0 0 0 0 0 0 0 0 0 0 0 0 0 127 0" result="hardAlpha"/>
<feOffset dy="24"/>
<feGaussianBlur stdDeviation="12"/>
<feComposite in2="hardAlpha" operator="out"/>
<feColorMatrix type="matrix" values="0 0 0 0 0 0 0 0 0 0 0 0 0 0 0 0 0 0 0.15 0"/>
<feBlend mode="normal" in2="BackgroundImageFix" result="effect1_dropShadow_2_65"/>
<feBlend mode="normal" in="SourceGraphic" in2="effect1_dropShadow_2_65" result="shape"/>
</filter>
</defs>
</svg>
